<svg width="111" height="111" viewBox="0 0 111 111" fill="none" xmlns="http://www.w3.org/2000/svg">
<path d="M0 55.1947C0 24.7122 24.7122 0 55.1947 0C85.6772 0 110.389 24.7122 110.389 55.1947C110.389 85.6772 85.6772 110.389 55.1947 110.389C24.7122 110.389 0 85.6772 0 55.1947Z" fill="#131417" fill-opacity="0.05"/>
<path d="M55.1943 0.288086C85.5178 0.288086 110.101 24.8709 110.102 55.1943C110.102 85.5179 85.5179 110.102 55.1943 110.102C24.8709 110.101 0.288086 85.5178 0.288086 55.1943C0.288264 24.871 24.871 0.288264 55.1943 0.288086Z" stroke="black" stroke-opacity="0.08" stroke-width="0.575476"/>
<path d="M47.6681 55.1938V45.1584C47.6681 43.1513 48.4581 41.2694 49.8756 39.8896C51.2805 38.3842 53.2001 37.6318 55.1946 37.6318C57.1892 37.6318 59.1087 38.3842 60.5137 39.8896C61.9312 41.2694 62.7212 43.1513 62.7212 45.1584V55.1938C62.7212 57.2009 61.9312 59.0827 60.5137 60.4626C59.1087 61.9679 57.1892 62.7203 55.1946 62.7203C53.2001 62.7203 51.2805 61.9679 49.8756 60.4626C48.4581 59.0827 47.6681 57.2009 47.6681 55.1938ZM67.7389 55.1938C67.7389 54.8174 67.6008 54.5663 67.375 54.3154C67.1367 54.0645 66.8231 53.9394 66.4845 53.9394C66.1458 53.9394 65.8322 54.0645 65.5939 54.3154C65.3681 54.5663 65.23 54.8174 65.23 55.1938C65.23 57.8281 64.1765 60.4626 62.2949 62.3442C60.4132 64.2259 57.854 65.2292 55.1946 65.2292C52.5353 65.2292 49.976 64.2259 48.0944 62.3442C46.2128 60.4626 45.1592 57.8281 45.1592 55.1938C45.1592 54.8174 45.0212 54.5663 44.7954 54.3154C44.5571 54.0645 44.2435 53.9394 43.9048 53.9394C43.5661 53.9394 43.2526 54.0645 43.0142 54.3154C42.7884 54.5663 42.6504 54.8174 42.6504 55.1938C42.6504 58.3298 43.8043 61.3407 45.8992 63.5987C47.9815 65.8566 50.8418 67.3617 53.9402 67.738V71.5013C53.9402 71.8776 54.0782 72.1287 54.304 72.3796C54.5424 72.6305 54.8559 72.7557 55.1946 72.7557C55.5333 72.7557 55.8469 72.6305 56.0852 72.3796C56.311 72.1287 56.4491 71.8776 56.4491 71.5013V67.738C59.5475 67.3617 62.4078 65.8566 64.4901 63.5987C66.585 61.3407 67.7389 58.3298 67.7389 55.1938Z" fill="black"/>
</svg>
